<?xml version="1.0" encoding="utf-8"?>
<!-- Generator: Adobe Illustrator 27.1.1, SVG Export Plug-In . SVG Version: 6.00 Build 0)  -->
<svg version="1.1" id="Calque_1" xmlns="http://www.w3.org/2000/svg" xmlns:xlink="http://www.w3.org/1999/xlink" x="0px" y="0px"
	 viewBox="0 0 55 350" style="enable-background:new 0 0 55 350;" xml:space="preserve">
<style type="text/css">
	.st0{clip-path:url(#SVGID_00000159466974453709703650000002392274517782508195_);fill:#003771;}
</style>
<g>
	<defs>
		<rect id="SVGID_1_" x="1.48" y="21.32" width="51.92" height="307"/>
	</defs>
	<clipPath id="SVGID_00000092456216854827638460000000579817522899269031_">
		<use xlink:href="#SVGID_1_"  style="overflow:visible;"/>
	</clipPath>
	<path style="clip-path:url(#SVGID_00000092456216854827638460000000579817522899269031_);fill:#003771;" d="M27.44,73.24
		c14.34,0,25.96-11.62,25.96-25.96S41.77,21.32,27.44,21.32S1.48,32.95,1.48,47.28S13.1,73.24,27.44,73.24"/>
	<path style="clip-path:url(#SVGID_00000092456216854827638460000000579817522899269031_);fill:#003771;" d="M25.54,328.32
		c3.5,0,6.33-2.83,6.33-6.33c0-3.5-2.84-6.33-6.33-6.33s-6.33,2.84-6.33,6.33C19.21,325.49,22.04,328.32,25.54,328.32"/>
	<path style="clip-path:url(#SVGID_00000092456216854827638460000000579817522899269031_);fill:#003771;" d="M25.54,298.34
		c5.8,0,10.51-4.7,10.51-10.51c0-5.8-4.7-10.51-10.51-10.51s-10.51,4.7-10.51,10.51C15.03,293.63,19.74,298.34,25.54,298.34"/>
	<path style="clip-path:url(#SVGID_00000092456216854827638460000000579817522899269031_);fill:#003771;" d="M25.54,262.06
		c6.96,0,12.61-5.64,12.61-12.61c0-6.96-5.64-12.61-12.61-12.61s-12.61,5.64-12.61,12.61C12.93,256.41,18.58,262.06,25.54,262.06"/>
	<path style="clip-path:url(#SVGID_00000092456216854827638460000000579817522899269031_);fill:#003771;" d="M25.54,221.58
		c7.57,0,13.7-6.14,13.7-13.7s-6.14-13.71-13.7-13.71s-13.7,6.14-13.7,13.71S17.97,221.58,25.54,221.58"/>
	<path style="clip-path:url(#SVGID_00000092456216854827638460000000579817522899269031_);fill:#003771;" d="M25.54,178.91
		c9.05,0,16.39-7.34,16.39-16.39c0-9.05-7.34-16.39-16.39-16.39s-16.39,7.34-16.39,16.39C9.15,171.57,16.49,178.91,25.54,178.91"/>
	<path style="clip-path:url(#SVGID_00000092456216854827638460000000579817522899269031_);fill:#003771;" d="M25.54,130.86
		c10.57,0,19.13-8.57,19.13-19.13S36.11,92.6,25.54,92.6s-19.13,8.57-19.13,19.13S14.97,130.86,25.54,130.86"/>
</g>
</svg>
